<mxfile host="app.diagrams.net" modified="2023-06-20T16:57:48.510Z" agent="Mozilla/5.0 (Windows NT 10.0; Win64; x64; rv:109.0) Gecko/20100101 Firefox/114.0" etag="XAXGBuQOy03ed6DMhW65" version="21.4.0" type="github">
  <diagram id="C5RBs43oDa-KdzZeNtuy" name="Page-1">
    <mxGraphModel dx="1434" dy="754" grid="1" gridSize="10" guides="1" tooltips="1" connect="1" arrows="1" fold="1" page="1" pageScale="1" pageWidth="827" pageHeight="1169" math="0" shadow="0">
      <root>
        <mxCell id="WIyWlLk6GJQsqaUBKTNV-0" />
        <mxCell id="WIyWlLk6GJQsqaUBKTNV-1" parent="WIyWlLk6GJQsqaUBKTNV-0" />
        <mxCell id="IVSxT5j8KKHt3hRW0I3O-32" style="edgeStyle=orthogonalEdgeStyle;rounded=0;orthogonalLoop=1;jettySize=auto;html=1;entryX=0.5;entryY=0;entryDx=0;entryDy=0;" edge="1" parent="WIyWlLk6GJQsqaUBKTNV-1" source="IVSxT5j8KKHt3hRW0I3O-10" target="IVSxT5j8KKHt3hRW0I3O-30">
          <mxGeometry relative="1" as="geometry" />
        </mxCell>
        <mxCell id="IVSxT5j8KKHt3hRW0I3O-10" value="Compose Task" style="rounded=1;whiteSpace=wrap;html=1;" vertex="1" parent="WIyWlLk6GJQsqaUBKTNV-1">
          <mxGeometry x="340" y="10" width="120" height="60" as="geometry" />
        </mxCell>
        <mxCell id="IVSxT5j8KKHt3hRW0I3O-16" style="edgeStyle=orthogonalEdgeStyle;rounded=0;orthogonalLoop=1;jettySize=auto;html=1;entryX=0.5;entryY=0;entryDx=0;entryDy=0;" edge="1" parent="WIyWlLk6GJQsqaUBKTNV-1" source="IVSxT5j8KKHt3hRW0I3O-13" target="IVSxT5j8KKHt3hRW0I3O-20">
          <mxGeometry relative="1" as="geometry" />
        </mxCell>
        <mxCell id="IVSxT5j8KKHt3hRW0I3O-13" value="Input Task&#39;s&lt;br&gt;Name &amp;amp; Details&lt;br&gt;from a form" style="shape=parallelogram;perimeter=parallelogramPerimeter;whiteSpace=wrap;html=1;fixedSize=1;" vertex="1" parent="WIyWlLk6GJQsqaUBKTNV-1">
          <mxGeometry x="305" y="180" width="190" height="60" as="geometry" />
        </mxCell>
        <mxCell id="IVSxT5j8KKHt3hRW0I3O-18" style="edgeStyle=orthogonalEdgeStyle;rounded=0;orthogonalLoop=1;jettySize=auto;html=1;entryX=1;entryY=0.5;entryDx=0;entryDy=0;" edge="1" parent="WIyWlLk6GJQsqaUBKTNV-1" source="IVSxT5j8KKHt3hRW0I3O-15" target="IVSxT5j8KKHt3hRW0I3O-17">
          <mxGeometry relative="1" as="geometry" />
        </mxCell>
        <mxCell id="IVSxT5j8KKHt3hRW0I3O-36" style="edgeStyle=orthogonalEdgeStyle;rounded=0;orthogonalLoop=1;jettySize=auto;html=1;entryX=1;entryY=0.5;entryDx=0;entryDy=0;" edge="1" parent="WIyWlLk6GJQsqaUBKTNV-1" source="IVSxT5j8KKHt3hRW0I3O-15" target="IVSxT5j8KKHt3hRW0I3O-29">
          <mxGeometry relative="1" as="geometry">
            <Array as="points">
              <mxPoint x="730" y="450" />
              <mxPoint x="730" y="210" />
            </Array>
          </mxGeometry>
        </mxCell>
        <mxCell id="IVSxT5j8KKHt3hRW0I3O-15" value="If name.length and details.length is empty" style="rhombus;whiteSpace=wrap;html=1;" vertex="1" parent="WIyWlLk6GJQsqaUBKTNV-1">
          <mxGeometry x="520" y="390" width="180" height="120" as="geometry" />
        </mxCell>
        <mxCell id="IVSxT5j8KKHt3hRW0I3O-17" value="If name.length &amp;gt; 30&lt;br&gt;or details.length &amp;gt; 500" style="rhombus;whiteSpace=wrap;html=1;" vertex="1" parent="WIyWlLk6GJQsqaUBKTNV-1">
          <mxGeometry x="317.5" y="397.5" width="165" height="105" as="geometry" />
        </mxCell>
        <mxCell id="IVSxT5j8KKHt3hRW0I3O-41" style="edgeStyle=orthogonalEdgeStyle;rounded=0;orthogonalLoop=1;jettySize=auto;html=1;entryX=0;entryY=0.5;entryDx=0;entryDy=0;" edge="1" parent="WIyWlLk6GJQsqaUBKTNV-1" source="IVSxT5j8KKHt3hRW0I3O-20" target="IVSxT5j8KKHt3hRW0I3O-21">
          <mxGeometry relative="1" as="geometry" />
        </mxCell>
        <mxCell id="IVSxT5j8KKHt3hRW0I3O-20" value="&quot;Cancel&quot; button pressed?" style="rhombus;whiteSpace=wrap;html=1;" vertex="1" parent="WIyWlLk6GJQsqaUBKTNV-1">
          <mxGeometry x="340" y="270" width="120" height="80" as="geometry" />
        </mxCell>
        <mxCell id="IVSxT5j8KKHt3hRW0I3O-38" style="edgeStyle=orthogonalEdgeStyle;rounded=0;orthogonalLoop=1;jettySize=auto;html=1;exitX=0.5;exitY=1;exitDx=0;exitDy=0;entryX=0.5;entryY=0;entryDx=0;entryDy=0;" edge="1" parent="WIyWlLk6GJQsqaUBKTNV-1" source="IVSxT5j8KKHt3hRW0I3O-21" target="IVSxT5j8KKHt3hRW0I3O-15">
          <mxGeometry relative="1" as="geometry" />
        </mxCell>
        <mxCell id="IVSxT5j8KKHt3hRW0I3O-21" value="&quot;Create&quot; button pressed?" style="rhombus;whiteSpace=wrap;html=1;" vertex="1" parent="WIyWlLk6GJQsqaUBKTNV-1">
          <mxGeometry x="550" y="270" width="120" height="80" as="geometry" />
        </mxCell>
        <mxCell id="IVSxT5j8KKHt3hRW0I3O-25" value="&lt;b&gt;NO&lt;/b&gt;" style="text;html=1;strokeColor=none;fillColor=none;align=center;verticalAlign=middle;whiteSpace=wrap;rounded=0;" vertex="1" parent="WIyWlLk6GJQsqaUBKTNV-1">
          <mxGeometry x="440" y="280" width="60" height="30" as="geometry" />
        </mxCell>
        <mxCell id="IVSxT5j8KKHt3hRW0I3O-26" value="&lt;b&gt;YES&lt;/b&gt;" style="text;html=1;strokeColor=none;fillColor=none;align=center;verticalAlign=middle;whiteSpace=wrap;rounded=0;" vertex="1" parent="WIyWlLk6GJQsqaUBKTNV-1">
          <mxGeometry x="600" y="350" width="60" height="30" as="geometry" />
        </mxCell>
        <mxCell id="IVSxT5j8KKHt3hRW0I3O-27" value="&lt;b&gt;NO&lt;/b&gt;" style="text;html=1;strokeColor=none;fillColor=none;align=center;verticalAlign=middle;whiteSpace=wrap;rounded=0;" vertex="1" parent="WIyWlLk6GJQsqaUBKTNV-1">
          <mxGeometry x="470" y="420" width="60" height="30" as="geometry" />
        </mxCell>
        <mxCell id="IVSxT5j8KKHt3hRW0I3O-28" value="&lt;b&gt;YES&lt;/b&gt;" style="text;html=1;strokeColor=none;fillColor=none;align=center;verticalAlign=middle;whiteSpace=wrap;rounded=0;" vertex="1" parent="WIyWlLk6GJQsqaUBKTNV-1">
          <mxGeometry x="680" y="420" width="60" height="30" as="geometry" />
        </mxCell>
        <mxCell id="IVSxT5j8KKHt3hRW0I3O-37" style="edgeStyle=orthogonalEdgeStyle;rounded=0;orthogonalLoop=1;jettySize=auto;html=1;entryX=1;entryY=0.5;entryDx=0;entryDy=0;" edge="1" parent="WIyWlLk6GJQsqaUBKTNV-1" source="IVSxT5j8KKHt3hRW0I3O-29" target="IVSxT5j8KKHt3hRW0I3O-13">
          <mxGeometry relative="1" as="geometry" />
        </mxCell>
        <mxCell id="IVSxT5j8KKHt3hRW0I3O-29" value="Alert " style="rounded=0;whiteSpace=wrap;html=1;" vertex="1" parent="WIyWlLk6GJQsqaUBKTNV-1">
          <mxGeometry x="550" y="180" width="120" height="60" as="geometry" />
        </mxCell>
        <mxCell id="IVSxT5j8KKHt3hRW0I3O-33" style="edgeStyle=orthogonalEdgeStyle;rounded=0;orthogonalLoop=1;jettySize=auto;html=1;exitX=0.5;exitY=1;exitDx=0;exitDy=0;entryX=0.5;entryY=0;entryDx=0;entryDy=0;" edge="1" parent="WIyWlLk6GJQsqaUBKTNV-1" source="IVSxT5j8KKHt3hRW0I3O-30" target="IVSxT5j8KKHt3hRW0I3O-13">
          <mxGeometry relative="1" as="geometry" />
        </mxCell>
        <mxCell id="IVSxT5j8KKHt3hRW0I3O-30" value="Display empty form with entries: Name &amp;amp; Details" style="rounded=0;whiteSpace=wrap;html=1;" vertex="1" parent="WIyWlLk6GJQsqaUBKTNV-1">
          <mxGeometry x="340" y="100" width="120" height="60" as="geometry" />
        </mxCell>
      </root>
    </mxGraphModel>
  </diagram>
</mxfile>
